<?xml version="1.0" standalone="no"?>
<!DOCTYPE svg PUBLIC "-//W3C//DTD SVG 20010904//EN"
 "http://www.w3.org/TR/2001/REC-SVG-20010904/DTD/svg10.dtd">
<svg version="1.0" xmlns="http://www.w3.org/2000/svg"
 width="963.000000pt" height="1280.000000pt" viewBox="0 0 963.000000 1280.000000"
 preserveAspectRatio="xMidYMid meet">
<metadata>
Created by potrace 1.15, written by Peter Selinger 2001-2017
</metadata>
<g transform="translate(0.000000,1280.000000) scale(0.100000,-0.100000)"
fill="#607d8b" stroke="none">
<path d="M5062 12785 c-102 -29 -132 -56 -132 -122 0 -20 4 -24 18 -18 51 20
48 13 -11 -30 -18 -12 -17 -16 13 -89 17 -41 41 -87 52 -101 23 -29 52 -34 45
-7 -58 216 -58 244 -2 268 52 21 91 17 157 -18 112 -60 207 -185 284 -373 l32
-80 -27 -30 c-31 -33 -51 -83 -51 -126 0 -49 39 -136 76 -168 40 -36 72 -46
121 -38 44 8 70 30 94 82 35 76 16 171 -46 235 -19 19 -41 55 -50 80 -43 121
-198 363 -285 443 -101 94 -185 121 -288 92z"/>
<path d="M6575 12758 c3 -13 8 -36 11 -53 2 -16 38 -185 79 -375 158 -733 217
-1019 230 -1136 8 -67 22 -140 30 -164 8 -23 15 -58 15 -77 0 -21 74 -225 189
-521 104 -268 421 -1083 704 -1812 283 -729 657 -1692 831 -2140 174 -448 325
-826 335 -840 16 -22 27 -25 85 -28 44 -1 91 5 134 17 37 11 100 25 141 32
141 22 201 63 201 137 0 35 6 52 31 79 20 24 29 44 28 62 -2 14 -1 31 3 36 3
6 -45 141 -107 300 -104 266 -514 1322 -1205 3100 -396 1019 -685 1763 -706
1820 -10 27 -32 63 -49 80 -46 44 -528 786 -528 812 0 7 -4 10 -9 7 -5 -4 -8
0 -6 7 4 20 -34 79 -45 72 -6 -3 -7 -1 -3 6 10 16 -52 113 -122 193 -33 36
-74 92 -92 125 -19 32 -55 90 -80 128 -26 39 -57 89 -69 113 -23 45 -38 56
-26 20z m735 -1648 c0 -5 -7 -10 -16 -10 -8 0 -12 5 -9 10 3 6 10 10 16 10 5
0 9 -4 9 -10z m-210 -100 c-20 -13 -33 -13 -25 0 3 6 14 10 23 10 15 0 15 -2
2 -10z m1927 -5102 c-3 -8 -6 -5 -6 6 -1 11 2 17 5 13 3 -3 4 -12 1 -19z"/>
<path d="M4545 12676 c-64 -16 -108 -39 -132 -69 -14 -18 -22 -22 -35 -14 -19
12 -74 -7 -82 -29 -11 -29 40 -132 121 -245 45 -64 83 -121 83 -127 0 -7 -19
3 -43 21 -100 76 -243 118 -339 98 -103 -22 -268 -114 -268 -151 0 -18 -2 -18
-35 -4 -52 21 -126 18 -187 -10 -81 -36 -206 -136 -170 -136 5 0 35 9 68 20
128 44 210 36 361 -36 136 -65 216 -161 277 -332 l26 -74 -26 -21 c-34 -26
-63 -91 -64 -138 0 -86 67 -189 137 -208 69 -19 137 24 163 105 16 47 8 102
-23 167 -14 29 -31 70 -38 92 -18 62 -72 164 -121 230 -50 68 -244 250 -312
293 l-44 28 96 12 c143 18 240 14 226 -9 -3 -5 16 -9 43 -9 52 0 140 -32 192
-70 49 -34 86 -92 127 -196 36 -94 36 -94 19 -131 -48 -100 -16 -219 75 -281
28 -19 44 -23 83 -19 27 2 56 12 69 23 29 26 58 92 58 135 0 45 -24 117 -49
144 -11 11 -33 54 -50 96 -18 42 -47 102 -66 134 l-35 57 36 -22 c20 -11 39
-18 43 -15 3 4 -1 10 -9 15 -8 5 -35 23 -59 40 -34 25 -41 34 -30 42 10 7 9 8
-6 4 -16 -5 -33 6 -68 42 l-47 48 28 38 29 38 -64 131 c-35 71 -60 133 -56
137 4 4 28 12 53 18 121 30 155 27 147 -14 -2 -13 0 -24 6 -24 5 0 41 -9 80
-21 48 -14 79 -30 99 -52 43 -46 111 -153 137 -217 26 -65 45 -225 37 -320 -8
-99 4 -144 55 -196 69 -71 145 -77 201 -17 98 106 19 333 -117 333 -14 0 -27
6 -29 13 -2 6 -20 63 -40 125 -20 62 -33 118 -30 124 4 7 2 8 -5 4 -12 -8 -55
79 -46 94 3 5 1 11 -4 15 -6 3 -35 48 -65 99 -108 183 -210 234 -381 192z"/>
<path d="M5710 12590 c-8 -5 -10 -10 -5 -10 6 0 17 5 25 10 8 5 11 10 5 10 -5
0 -17 -5 -25 -10z"/>
<path d="M5580 12530 c-8 -5 -10 -10 -5 -10 6 0 17 5 25 10 8 5 11 10 5 10 -5
0 -17 -5 -25 -10z"/>
<path d="M5300 12400 c-8 -5 -10 -10 -5 -10 6 0 17 5 25 10 8 5 11 10 5 10 -5
0 -17 -5 -25 -10z"/>
<path d="M5866 12381 c-7 -10 36 -110 47 -111 15 0 6 37 -18 71 -13 20 -21 39
-18 43 4 3 4 6 0 6 -3 0 -8 -4 -11 -9z"/>
<path d="M5170 12340 c-8 -5 -10 -10 -5 -10 6 0 17 5 25 10 8 5 11 10 5 10 -5
0 -17 -5 -25 -10z"/>
<path d="M5905 12204 c20 -165 123 -431 243 -629 84 -139 126 -228 234 -498
93 -234 127 -312 128 -295 0 4 -45 123 -101 265 -252 644 -332 851 -344 888
-25 76 -141 319 -154 323 -11 4 -12 -7 -6 -54z"/>
<path d="M4890 12210 c-8 -5 -10 -10 -5 -10 6 0 17 5 25 10 8 5 11 10 5 10 -5
0 -17 -5 -25 -10z"/>
<path d="M3559 12003 c-28 -17 -28 -28 -15 -215 2 -27 2 -48 1 -48 -1 0 -21
19 -45 41 -129 123 -275 166 -405 121 -90 -32 -193 -108 -172 -128 3 -3 33
-12 67 -20 34 -8 74 -21 89 -28 14 -8 100 -42 191 -76 250 -94 361 -158 421
-241 l21 -30 -21 -49 c-27 -64 -27 -123 3 -186 33 -71 85 -109 147 -109 41 0
53 5 83 34 79 77 66 216 -29 299 -40 36 -73 47 -115 38 -29 -5 -31 -2 -82 92
-64 118 -94 215 -107 347 -6 55 -13 110 -17 122 -4 16 -1 25 10 29 16 6 23 24
9 24 -5 0 -20 -8 -34 -17z"/>
<path d="M4200 11890 c-8 -5 -10 -10 -5 -10 6 0 17 5 25 10 8 5 11 10 5 10 -5
0 -17 -5 -25 -10z"/>
<path d="M6096 11877 c3 -10 9 -15 12 -12 3 3 0 11 -7 18 -10 9 -11 8 -5 -6z"/>
<path d="M3920 11760 c-8 -5 -10 -10 -5 -10 6 0 17 5 25 10 8 5 11 10 5 10 -5
0 -17 -5 -25 -10z"/>
<path d="M6150 11765 c0 -5 5 -17 10 -25 5 -8 10 -10 10 -5 0 6 -5 17 -10 25
-5 8 -10 11 -10 5z"/>
<path d="M3790 11700 c-8 -5 -10 -10 -5 -10 6 0 17 5 25 10 8 5 11 10 5 10 -5
0 -17 -5 -25 -10z"/>
<path d="M6181 11695 c0 -5 6 -21 14 -35 8 -14 14 -20 14 -15 0 6 -6 21 -14
35 -8 14 -14 21 -14 15z"/>
<path d="M2666 11650 c-73 -13 -136 -81 -136 -147 0 -15 12 -70 26 -122 14
-51 23 -95 21 -97 -2 -3 -35 14 -73 36 -88 52 -179 80 -258 80 -50 0 -75 -6
-124 -31 -62 -30 -128 -95 -138 -134 -4 -18 -13 -20 -87 -20 -57 0 -103 -7
-152 -22 -74 -24 -141 -60 -131 -70 3 -3 44 -1 90 6 l84 13 119 -47 c211 -84
266 -118 382 -233 94 -94 102 -105 88 -120 -67 -77 -62 -209 11 -285 56 -59
121 -73 178 -38 47 29 67 80 62 162 -5 84 -40 142 -108 177 -32 16 -51 35 -67
65 -12 23 -51 71 -87 106 -36 36 -62 69 -59 74 3 6 1 7 -5 3 -7 -4 -39 17 -77
51 -36 32 -93 75 -126 95 l-62 38 48 21 c43 19 61 21 145 16 144 -9 349 -81
309 -109 -11 -8 -10 -8 5 -4 42 14 255 -167 241 -203 -4 -9 -9 -41 -12 -72 -5
-47 -1 -66 20 -111 34 -75 84 -113 149 -113 44 0 53 4 83 37 19 20 39 55 45
77 26 99 -39 222 -135 255 -22 8 -52 32 -78 63 -23 28 -64 70 -92 94 -27 23
-49 45 -48 49 1 4 -4 7 -12 7 -30 0 -85 48 -95 83 -18 65 -12 109 20 150 46
58 93 84 138 75 72 -13 130 -46 187 -106 46 -48 72 -91 140 -232 47 -95 94
-182 106 -193 12 -10 30 -38 40 -61 13 -30 23 -41 33 -37 10 4 20 -3 27 -19 6
-14 19 -26 28 -26 9 -1 36 -4 61 -7 92 -10 145 57 138 177 -5 85 -40 142 -109
177 -57 28 -99 21 -145 -25 -19 -18 -34 -29 -34 -24 0 25 -44 125 -81 181 -21
34 -36 66 -33 72 4 6 3 8 -3 5 -6 -4 -27 14 -46 39 -38 48 -116 120 -203 185
-59 45 -116 55 -208 39z"/>
<path d="M6236 11550 c3 -14 11 -32 16 -40 6 -10 7 -7 2 10 -3 14 -11 32 -16
40 -6 10 -7 7 -2 -10z"/>
<path d="M6270 11455 c0 -5 5 -17 10 -25 5 -8 10 -10 10 -5 0 6 -5 17 -10 25
-5 8 -10 11 -10 5z"/>
<path d="M3230 11440 c-8 -5 -10 -10 -5 -10 6 0 17 5 25 10 8 5 11 10 5 10 -5
0 -17 -5 -25 -10z"/>
<path d="M6290 11405 c0 -5 5 -17 10 -25 5 -8 10 -10 10 -5 0 6 -5 17 -10 25
-5 8 -10 11 -10 5z"/>
<path d="M6320 11335 c0 -5 5 -17 10 -25 5 -8 10 -10 10 -5 0 6 -5 17 -10 25
-5 8 -10 11 -10 5z"/>
<path d="M2820 11250 c-8 -5 -10 -10 -5 -10 6 0 17 5 25 10 8 5 11 10 5 10 -5
0 -17 -5 -25 -10z"/>
<path d="M5115 10630 c-1037 -504 -1276 -617 -1875 -893 -348 -160 -390 -180
-386 -184 2 -2 47 17 101 42 54 25 100 44 101 42 4 -4 -86 -47 -1216 -592
-718 -346 -801 -387 -796 -392 2 -2 282 128 622 290 1602 762 3102 1472 3304
1562 47 21 94 44 105 51 11 7 276 135 589 283 526 250 570 272 583 302 15 36
16 39 6 38 -5 0 -516 -248 -1138 -549z m-1980 -960 c-3 -5 -12 -10 -18 -10 -7
0 -6 4 3 10 19 12 23 12 15 0z"/>
<path d="M2410 11060 c-8 -5 -10 -10 -5 -10 6 0 17 5 25 10 8 5 11 10 5 10 -5
0 -17 -5 -25 -10z"/>
<path d="M1344 11051 c-44 -11 -207 -99 -238 -128 -60 -55 -13 -74 329 -138
208 -39 314 -87 422 -190 l63 -61 -20 -39 c-61 -120 28 -298 150 -297 22 0 40
-3 40 -9 0 -5 5 -9 11 -9 5 0 8 4 5 9 -3 5 9 24 28 43 20 20 39 53 46 79 31
113 -58 259 -158 259 -24 0 -40 13 -93 78 -181 220 -308 340 -407 383 -51 22
-134 31 -178 20z"/>
<path d="M6460 11045 c0 -5 5 -17 10 -25 5 -8 10 -10 10 -5 0 6 -5 17 -10 25
-5 8 -10 11 -10 5z"/>
<path d="M2130 10930 c-8 -5 -10 -10 -5 -10 6 0 17 5 25 10 8 5 11 10 5 10 -5
0 -17 -5 -25 -10z"/>
<path d="M6501 10924 c0 -11 3 -14 6 -6 3 7 2 16 -1 19 -3 4 -6 -2 -5 -13z"/>
<path d="M6521 10854 c0 -11 3 -14 6 -6 3 7 2 16 -1 19 -3 4 -6 -2 -5 -13z"/>
<path d="M782 10766 c-78 -30 -154 -61 -167 -70 -37 -24 -31 -44 18 -56 23 -6
101 -29 172 -50 72 -21 175 -51 230 -65 147 -39 293 -113 367 -184 52 -52 59
-61 49 -79 -19 -35 -13 -113 13 -168 62 -134 201 -149 263 -29 34 64 12 178
-45 238 -56 60 -113 72 -171 36 -38 -23 -32 -29 -87 69 -36 63 -205 251 -292
324 -121 101 -163 105 -350 34z"/>
<path d="M6561 10714 c0 -11 3 -14 6 -6 3 7 2 16 -1 19 -3 4 -6 -2 -5 -13z"/>
<path d="M5885 10660 c-225 -59 -465 -154 -590 -233 -27 -17 -88 -61 -135 -98
-110 -86 -222 -158 -395 -254 -77 -43 -227 -129 -333 -192 -106 -63 -277 -160
-380 -217 -300 -165 -394 -233 -463 -333 -61 -89 -34 -92 139 -17 181 78 393
194 660 361 193 121 269 157 355 167 117 15 892 374 1037 480 71 53 240 231
267 282 48 93 20 102 -162 54z"/>
<path d="M6568 10685 c-3 -3 6 -35 20 -71 14 -35 27 -63 28 -61 2 2 -7 33 -19
70 -13 37 -26 65 -29 62z"/>
<path d="M358 10647 c-76 -26 -116 -55 -96 -69 7 -4 47 -8 89 -8 132 0 327
-70 444 -158 70 -53 120 -124 157 -222 27 -73 31 -97 29 -168 -2 -96 16 -147
68 -199 82 -82 200 -47 231 67 23 84 -28 208 -99 245 -39 20 -100 19 -129 -1
-13 -9 -25 -14 -26 -13 -2 2 -24 45 -50 94 -26 50 -79 132 -118 183 -179 233
-330 309 -500 249z"/>
<path d="M1440 10610 c-8 -5 -10 -10 -5 -10 6 0 17 5 25 10 8 5 11 10 5 10 -5
0 -17 -5 -25 -10z"/>
<path d="M53 10560 c-18 -7 -23 -18 -23 -47 -1 -21 -7 -65 -15 -98 -19 -79
-19 -237 0 -301 8 -28 33 -76 54 -107 22 -31 45 -76 51 -99 17 -64 65 -160 94
-187 19 -18 30 -21 50 -15 l25 9 -60 80 c-96 127 -102 143 -143 400 -20 127
-38 238 -40 247 -7 35 79 88 143 88 59 0 97 -39 169 -172 42 -79 69 -142 86
-210 26 -100 72 -204 106 -238 18 -18 18 -22 5 -54 -22 -52 -19 -123 9 -182
79 -170 277 -135 278 50 1 122 -90 226 -188 212 l-42 -5 -7 41 c-16 95 -156
445 -202 507 -42 54 -119 84 -232 88 -53 1 -106 -1 -118 -7z"/>
<path d="M6590 10535 c0 -5 5 -17 10 -25 5 -8 10 -10 10 -5 0 6 -5 17 -10 25
-5 8 -10 11 -10 5z"/>
<path d="M6610 10485 c0 -5 5 -17 10 -25 5 -8 10 -10 10 -5 0 6 -5 17 -10 25
-5 8 -10 11 -10 5z"/>
<path d="M1030 10420 c-8 -5 -10 -10 -5 -10 6 0 17 5 25 10 8 5 11 10 5 10 -5
0 -17 -5 -25 -10z"/>
<path d="M6475 10422 c-6 -5 -253 -126 -550 -269 -297 -144 -1114 -539 -1815
-878 -701 -340 -1536 -743 -1855 -897 -852 -411 -995 -481 -991 -485 3 -4 260
116 901 422 636 303 4129 1957 4150 1965 19 7 22 3 32 -44 6 -29 43 -133 81
-232 38 -98 84 -219 101 -267 l31 -88 -308 -151 c-376 -184 -537 -262 -1132
-550 -256 -124 -825 -400 -1265 -613 -686 -332 -1483 -717 -2052 -991 -84 -40
-153 -76 -153 -78 0 -10 -10 -15 985 459 1333 634 3932 1865 3939 1865 5 0 24
-56 101 -295 35 -110 82 -244 103 -297 l39 -96 -221 -108 c-768 -372 -2877
-1393 -3496 -1691 -977 -471 -1211 -586 -1207 -590 5 -4 39 11 922 432 286
136 990 470 1565 743 575 272 1358 643 1740 824 382 182 700 332 706 334 6 3
51 -74 102 -178 50 -101 123 -234 162 -297 39 -63 69 -115 68 -116 -2 -2 -502
-245 -1113 -540 -610 -296 -1324 -641 -1585 -767 -261 -127 -806 -390 -1210
-585 -997 -481 -1191 -576 -1186 -580 3 -3 226 101 931 437 176 84 961 456
1745 827 784 372 1652 784 1930 915 572 272 532 253 528 242 -1 -5 10 -32 24
-59 54 -104 143 -357 215 -606 3 -12 -119 -75 -539 -279 -494 -239 -1744 -841
-1963 -945 -195 -92 -396 -190 -517 -251 -71 -35 -128 -61 -128 -57 0 5 -4 3
-8 -3 -12 -19 -92 -55 -104 -48 -6 4 -8 3 -5 -3 8 -13 -20 -26 -35 -16 -7 4
-8 1 -3 -7 6 -10 4 -12 -9 -7 -11 5 -15 3 -10 -5 5 -8 2 -9 -10 -5 -9 4 -15 3
-12 -2 7 -11 -22 -23 -36 -14 -6 3 -8 1 -5 -4 8 -13 -91 -56 -106 -46 -6 4 -7
1 -2 -7 6 -10 4 -12 -9 -7 -11 5 -15 3 -10 -5 5 -8 2 -9 -10 -5 -9 4 -15 3
-12 -2 7 -11 -22 -23 -36 -14 -6 3 -8 2 -5 -4 8 -13 -187 -108 -203 -98 -8 5
-11 4 -7 -2 4 -6 -276 -147 -673 -338 -374 -181 -679 -330 -677 -332 6 -5 65
23 762 354 1433 683 4397 2085 4400 2081 6 -6 272 -584 289 -628 10 -25 22
-50 28 -57 12 -15 150 54 -1137 -568 -599 -290 -1313 -636 -1585 -767 -272
-132 -817 -395 -1210 -585 -1220 -589 -1231 -595 -1226 -600 3 -4 235 106
1036 487 338 161 2590 1229 3908 1853 128 60 235 107 238 104 10 -9 120 -308
179 -487 32 -96 63 -178 69 -182 6 -4 0 -11 -14 -17 -14 -5 -128 -60 -255
-121 -439 -214 -3353 -1624 -3930 -1902 -863 -416 -995 -481 -991 -485 2 -3
359 164 793 370 786 374 1969 935 3553 1684 459 218 840 400 846 404 8 6 27
-46 64 -169 29 -97 65 -214 81 -260 l27 -83 -121 -58 c-407 -195 -1812 -873
-2187 -1056 -460 -225 -1334 -648 -2065 -1000 -588 -283 -676 -327 -672 -331
5 -5 24 4 742 346 292 139 1005 477 1585 752 580 275 1354 642 1720 816 366
173 744 352 840 397 l175 83 26 -72 c15 -39 43 -108 63 -153 20 -46 57 -143
83 -215 25 -73 56 -157 69 -186 l23 -53 -182 -88 c-100 -49 -528 -256 -952
-461 -423 -205 -950 -459 -1170 -565 -220 -106 -587 -284 -815 -395 -228 -111
-725 -352 -1105 -535 -690 -332 -896 -434 -883 -434 7 -1 223 100 808 379 655
312 4281 2031 4317 2046 28 12 32 12 27 -1 -4 -10 21 -44 72 -98 43 -45 94
-98 112 -118 l34 -37 -35 -93 c-21 -58 -41 -138 -51 -209 -28 -189 -42 -223
-152 -370 -39 -52 -93 -132 -119 -176 -29 -51 -58 -87 -74 -94 -14 -7 -210
-92 -436 -190 -2275 -986 -2370 -1028 -3385 -1476 -601 -265 -607 -267 -860
-340 -140 -40 -255 -72 -256 -71 -1 1 -18 49 -39 107 -20 58 -57 154 -82 215
-43 105 -600 1563 -699 1830 -79 214 -463 1224 -607 1600 -74 193 -151 395
-170 450 -19 55 -54 147 -77 205 -23 58 -173 449 -332 870 -570 1505 -841
2220 -975 2575 -75 198 -137 362 -139 364 -23 27 11 -73 150 -440 450 -1189
736 -1944 921 -2434 112 -297 258 -684 325 -860 67 -176 145 -385 175 -465 29
-80 108 -289 175 -465 170 -446 257 -677 265 -700 4 -11 -22 28 -58 87 -58 95
-91 173 -267 637 -123 325 -198 536 -194 548 4 11 3 14 -3 6 -11 -15 -328 821
-317 838 4 7 3 9 -3 6 -11 -7 -118 268 -433 1118 -122 330 -255 686 -295 790
-40 105 -157 417 -260 695 -104 278 -190 507 -192 509 -1 2 -6 2 -9 -1 -3 -4
24 -95 60 -204 36 -109 64 -199 62 -201 -1 -2 -20 41 -41 95 -74 187 -209 462
-227 462 -14 0 -9 -18 49 -193 46 -137 89 -235 210 -482 l153 -310 189 -575
c104 -316 244 -746 312 -955 68 -209 203 -618 300 -910 98 -291 176 -531 174
-533 -1 -1 -28 71 -60 160 -32 90 -87 242 -122 338 -35 96 -95 263 -134 370
-39 107 -94 258 -123 335 -29 77 -74 199 -99 270 -47 133 -92 257 -386 1060
-92 253 -243 686 -335 962 l-167 501 -32 -9 c-18 -5 -33 -9 -34 -9 -10 0 43
-161 448 -1379 1128 -3395 1409 -4241 1719 -5181 182 -553 398 -1207 480
-1455 184 -557 507 -1550 516 -1588 4 -19 11 -26 21 -23 8 4 26 9 39 12 20 5
23 11 18 28 -28 93 -430 1326 -569 1746 -96 289 -184 557 -196 595 -41 129
-855 2582 -1350 4069 -268 809 -487 1471 -485 1473 1 2 27 -63 56 -144 29 -82
260 -715 513 -1408 477 -1308 668 -1868 1327 -3895 56 -173 133 -405 170 -515
94 -279 525 -1597 545 -1670 10 -33 18 -70 19 -82 0 -11 5 -19 10 -16 5 4 6
-7 2 -23 -4 -17 -3 -24 2 -16 11 16 36 -63 26 -80 -4 -6 -3 -8 2 -5 6 3 18
-17 27 -44 10 -27 22 -49 27 -49 6 0 9 5 8 10 -5 17 632 352 658 347 14 -2 21
0 17 6 -4 6 0 8 9 4 26 -9 241 106 367 197 112 81 645 367 4441 2381 186 99
443 237 449 242 2 2 2 5 -1 8 -6 6 -186 -85 -498 -253 -107 -57 -960 -511
-1895 -1009 -935 -497 -1779 -946 -1875 -997 -306 -163 -355 -183 -160 -66 91
55 280 182 444 299 40 29 49 32 43 16 -5 -14 -1 -12 13 7 14 17 27 25 38 22
13 -5 14 -4 4 4 -10 7 35 44 175 143 224 160 395 274 443 299 42 21 224 55
241 44 8 -4 9 -3 5 4 -4 7 -1 12 8 12 17 0 130 66 147 86 6 8 18 14 25 14 8 0
14 5 14 10 0 13 -1 13 -53 -9 -25 -11 -80 -29 -123 -41 -43 -12 -85 -24 -94
-27 -8 -2 43 27 115 65 71 39 145 74 164 77 19 4 52 15 73 26 46 23 54 24 37
2 -17 -21 -5 -15 58 30 54 38 49 47 -6 13 -22 -14 -42 -22 -45 -17 -3 4 25 24
62 43 119 63 167 92 178 107 7 8 16 11 24 6 8 -5 11 -4 7 2 -4 6 27 37 68 68
41 32 75 59 75 60 0 3 -428 -198 -517 -244 -35 -17 -63 -30 -63 -27 0 6 151
91 200 113 25 11 203 97 395 191 537 261 583 282 602 276 13 -4 14 -3 5 3 -9
7 24 27 110 68 68 32 257 125 421 207 282 140 369 180 267 122 -46 -26 -96
-72 -87 -80 10 -11 385 157 522 234 85 47 255 161 255 169 0 3 -19 3 -42 -1
l-43 -6 54 30 c62 34 66 38 59 46 -3 3 -74 -32 -158 -77 -254 -136 -516 -260
-536 -253 -13 4 -15 3 -6 -3 11 -9 -420 -228 -848 -431 -63 -30 -216 -104
-340 -165 -124 -60 -490 -237 -815 -392 -324 -156 -691 -333 -815 -393 -270
-131 -2118 -1007 -2142 -1015 -17 -6 -26 -27 -11 -27 3 0 67 29 141 66 74 36
141 63 149 60 8 -3 23 -25 33 -49 11 -24 29 -55 40 -70 l21 -26 -38 -17 c-21
-8 -48 -17 -60 -17 -20 -2 -40 -24 -30 -33 1 -2 27 3 57 11 30 8 56 13 58 10
2 -2 -24 -11 -57 -21 l-61 -17 0 -49 c0 -39 5 -54 26 -75 22 -22 30 -24 72
-18 26 3 56 9 67 12 11 3 18 3 15 0 -8 -9 -551 -297 -558 -297 -6 0 -151 434
-522 1565 -72 220 -147 452 -167 515 -20 63 -47 147 -61 185 -13 39 -46 138
-74 220 -27 83 -173 525 -324 983 -152 459 -274 835 -272 837 2 2 474 -1290
665 -1825 31 -85 60 -166 66 -180 18 -46 54 -144 91 -250 20 -58 41 -114 45
-125 46 -103 321 -887 315 -897 -4 -7 -4 -10 1 -6 9 9 35 -50 111 -257 31 -82
68 -184 84 -225 15 -41 33 -93 39 -115 13 -47 27 -72 37 -63 3 4 -28 98 -70
210 -41 112 -85 230 -96 264 -11 34 -89 252 -175 485 -85 233 -153 430 -150
437 2 7 1 11 -3 8 -7 -4 -38 68 -69 159 -6 17 -27 75 -48 130 -51 139 -76 207
-139 380 -30 83 -250 686 -489 1341 -239 654 -481 1332 -537 1505 -57 172
-152 463 -211 645 -60 183 -109 335 -109 339 0 13 50 -86 96 -189 25 -55 71
-143 103 -195 57 -92 231 -427 231 -444 0 -4 -9 -3 -19 3 -29 15 -30 13 -9
-29 23 -48 61 -225 56 -263 -3 -15 -1 -25 4 -22 4 3 8 -7 8 -21 0 -34 30 -157
43 -172 5 -7 6 -21 3 -30 -4 -10 -4 -14 0 -10 4 4 35 -48 69 -116 33 -67 87
-161 118 -209 50 -78 53 -86 31 -78 -35 14 -35 14 -20 -23 95 -228 251 -784
230 -818 -5 -8 -3 -9 6 -4 8 5 11 3 8 -6 -6 -17 56 -201 83 -248 11 -19 18
-40 15 -48 -3 -8 -2 -12 3 -9 9 6 35 -59 101 -249 23 -65 62 -167 87 -225 64
-149 80 -190 129 -325 43 -121 38 -126 -23 -23 -46 78 -45 55 3 -59 25 -60 48
-113 51 -120 3 -7 16 -10 31 -7 24 5 31 -1 67 -61 22 -36 41 -61 43 -56 5 15
-27 72 -64 114 -30 32 -34 44 -34 91 0 30 -3 63 -6 73 -3 10 4 1 16 -19 31
-57 33 -46 4 29 -36 97 -142 558 -131 569 2 2 9 -13 16 -34 7 -20 105 -269
216 -552 112 -283 212 -540 224 -570 l21 -55 -22 30 c-13 16 -33 41 -46 55
-22 23 -22 23 -12 3 17 -36 7 -28 -50 42 -29 36 -54 64 -57 62 -2 -3 10 -42
27 -88 34 -93 34 -92 20 -84 -15 9 -12 -5 15 -75 14 -35 25 -66 25 -69 0 -3
-13 10 -30 29 -16 19 -29 32 -30 28 0 -5 20 -49 45 -99 25 -50 42 -95 40 -100
-6 -9 30 -98 101 -246 53 -110 68 -146 66 -155 -1 -5 3 -8 9 -8 5 0 7 -4 4
-10 -3 -5 -1 -10 5 -10 7 0 9 -7 6 -16 -4 -10 -2 -13 6 -8 8 5 9 2 5 -10 -4
-9 -3 -15 2 -12 12 8 55 -90 46 -105 -5 -7 -4 -10 2 -6 5 3 19 -15 32 -40 12
-25 24 -43 27 -40 3 3 -49 125 -114 272 -66 147 -118 265 -116 262 3 -2 54
-78 114 -168 119 -177 207 -289 226 -289 7 0 35 -55 64 -122 44 -106 50 -126
39 -143 -11 -18 -10 -19 4 -7 13 11 19 6 44 -37 15 -28 31 -51 36 -51 11 0 9
7 -13 50 -25 49 -25 60 1 60 11 0 29 5 39 10 15 8 21 6 29 -7 5 -10 13 -14 17
-10 4 4 3 12 -4 19 -8 8 21 31 115 90 110 67 133 78 172 78 90 0 185 35 302
110 42 27 123 74 180 103 127 66 219 123 240 149 9 11 27 22 40 23 13 2 49 15
79 29 30 14 61 26 68 26 6 0 12 4 12 10 0 5 8 7 18 4 13 -5 14 -4 3 4 -15 10
-71 -9 -141 -50 l-35 -20 30 26 c17 14 33 26 38 26 19 0 4 20 -15 20 -13 0 18
18 67 38 50 21 119 54 154 72 67 38 250 170 251 182 0 4 -24 -2 -52 -13 -29
-12 -109 -41 -178 -66 -69 -25 -163 -64 -210 -86 -47 -23 -87 -41 -90 -42 -10
-1 -149 -100 -150 -107 0 -3 9 -4 20 -1 11 3 20 0 20 -6 0 -6 -11 -11 -24 -11
-26 0 -62 -18 -401 -200 -126 -68 -271 -140 -322 -161 -50 -21 -106 -46 -125
-55 -18 -10 -40 -17 -48 -16 -11 2 -12 1 -2 -6 9 -6 2 -17 -27 -40 l-40 -32
-19 27 -20 28 -34 -18 c-18 -10 -26 -16 -17 -13 10 3 27 -6 40 -20 l23 -24
-22 -22 c-12 -12 -23 -20 -25 -17 -5 8 -84 182 -117 261 -18 43 -29 82 -24 89
4 7 3 10 -2 7 -5 -3 -19 19 -30 49 l-22 54 25 12 c19 9 26 8 34 -4 7 -11 10
-10 15 9 8 28 63 53 181 83 48 12 95 24 103 26 8 3 2 -7 -14 -22 -48 -44 -19
-41 52 7 53 36 92 52 186 77 65 18 125 30 133 27 8 -3 12 -2 8 3 -3 5 14 14
37 19 24 5 97 23 163 40 66 17 169 36 229 43 60 6 146 20 190 31 45 11 92 22
105 24 13 3 33 10 43 15 11 6 26 8 34 5 8 -3 14 -2 14 3 0 5 9 11 21 14 17 5
18 3 7 -10 -11 -14 -10 -15 10 -9 12 3 32 8 45 11 20 5 19 4 -3 -7 -14 -6 -63
-30 -110 -53 -47 -23 -231 -111 -410 -195 -448 -210 -894 -429 -888 -436 3 -3
107 44 229 104 226 110 800 380 1226 576 127 58 251 110 275 115 24 5 57 14
73 21 17 7 37 12 45 11 12 -1 13 0 1 8 -26 17 59 58 199 96 74 20 153 42 175
49 104 35 103 24 -5 -29 -63 -31 -136 -70 -161 -86 -29 -18 -53 -27 -65 -23
-13 4 -15 3 -7 -3 14 -10 -130 -98 -437 -268 -96 -54 -179 -102 -185 -108 -7
-6 -7 -8 0 -5 115 53 566 282 610 308 33 20 110 63 170 95 61 32 134 73 163
92 61 38 83 40 137 13 29 -15 41 -17 46 -8 4 7 6 15 4 19 -3 3 45 25 105 47
198 75 332 134 593 264 142 71 263 125 269 122 7 -4 8 -2 4 4 -8 13 29 34 99
55 28 8 67 22 88 30 20 9 37 14 37 12 0 -3 -17 -13 -37 -24 -44 -23 -28 -26
49 -10 70 15 134 48 205 106 32 26 74 56 93 65 19 10 30 18 26 18 -9 0 0 6
165 97 52 28 164 76 250 106 192 67 178 60 348 172 46 30 87 55 91 55 11 0
231 101 257 118 12 7 28 10 35 6 7 -4 10 -4 6 1 -4 4 36 33 90 64 53 31 136
82 184 113 107 70 223 125 283 134 58 8 73 28 17 22 -31 -3 -38 -1 -30 9 12
15 -49 193 -90 263 -79 136 -171 325 -232 475 -37 94 -78 194 -91 223 l-22 54
-12 -29 c-10 -22 -9 -32 2 -48 7 -11 13 -24 13 -30 -1 -5 -8 2 -16 18 -15 28
-50 37 -70 17 -10 -10 -25 33 -113 332 -20 71 -52 146 -96 226 -60 109 -68
131 -94 258 -39 185 -66 253 -166 414 -84 136 -136 242 -225 465 -27 66 -69
164 -94 218 -25 53 -57 136 -71 185 -14 48 -42 139 -60 202 -19 63 -40 138
-45 165 -6 28 -33 118 -60 200 -26 83 -60 195 -75 250 -15 55 -35 129 -46 164
-11 35 -18 66 -16 67 2 2 16 -28 31 -66 37 -96 106 -244 110 -239 5 5 -27 130
-48 191 -63 185 -149 412 -239 630 -58 142 -143 354 -187 470 -45 117 -112
292 -150 388 -37 96 -73 192 -80 213 -8 24 -17 37 -25 33 -22 -8 -193 383
-201 458 -5 48 -7 50 -36 36 -18 -10 -21 -10 -11 0 9 10 8 21 -6 49 -11 20
-38 97 -61 171 -108 347 -131 411 -148 406 -10 -3 -37 -10 -62 -16 -25 -7 -51
-17 -59 -23 -14 -12 -12 1 6 51 6 14 -8 16 -22 4z m-6152 -1242 c47 -113 99
-236 116 -273 17 -38 31 -72 31 -75 -1 -11 -170 328 -207 413 -34 80 -103 271
-103 283 2 18 86 -163 163 -348z m171 -324 c15 -38 24 -71 22 -73 -4 -4 -35
72 -51 127 -14 47 3 15 29 -54z m245 -663 c33 -84 190 -505 581 -1558 49 -132
138 -370 199 -530 61 -159 109 -291 107 -293 -4 -3 -38 83 -152 383 -31 83
-101 239 -156 348 -54 109 -112 233 -129 275 -48 119 -122 325 -124 342 0 8
-22 59 -48 113 -34 73 -331 945 -393 1155 -12 41 80 -147 115 -235z m1151
-3067 c50 -131 89 -241 87 -242 -12 -12 -130 268 -162 381 -61 219 -60 217 75
-139z m620 -1431 c231 -603 467 -1221 497 -1305 19 -52 111 -297 205 -545 94
-247 172 -456 175 -464 3 -11 6 -12 15 -3 16 16 38 15 38 -2 0 -8 6 -17 13
-20 16 -6 -22 -38 -41 -34 -7 2 -59 113 -114 248 -55 135 -106 259 -114 276
-7 17 -29 71 -48 120 -18 49 -103 265 -188 479 -244 613 -299 760 -330 874
-16 58 -29 114 -29 124 0 9 -4 15 -8 12 -12 -7 -85 185 -126 329 -19 68 -37
132 -40 142 -14 47 20 -34 95 -231z m6475 -123 c-57 -50 -273 -178 -374 -223
-73 -32 -37 -7 124 87 232 135 277 159 250 136z m-657 -131 c-22 -32 -77 -73
-88 -66 -6 4 -9 1 -8 -6 5 -22 -85 -58 -221 -90 -73 -16 -135 -28 -137 -26 -3
3 450 205 464 207 2 0 -3 -8 -10 -19z m182 -165 c0 -15 -152 -88 -179 -85 -3
0 35 20 84 44 103 50 95 46 95 41z m-110 -26 c-8 -5 -19 -10 -25 -10 -5 0 -3
5 5 10 8 5 20 10 25 10 6 0 3 -5 -5 -10z m-41 -14 c-2 -2 -173 -82 -379 -176
-206 -95 -379 -175 -385 -180 -22 -16 -177 -81 -182 -76 -4 3 43 29 103 57 60
28 247 118 416 200 168 82 315 149 325 150 10 0 34 7 53 14 36 14 57 18 49 11z
m-714 -106 c-26 -27 -52 -47 -57 -44 -4 3 -5 -1 -2 -9 3 -8 1 -18 -5 -21 -5
-4 -17 -30 -25 -59 -22 -72 -32 -82 -128 -130 -78 -40 -83 -44 -80 -72 2 -30
1 -30 -215 -130 -120 -54 -288 -131 -373 -171 -788 -363 -837 -385 -925 -408
-33 -8 -60 -14 -62 -12 -2 1 54 38 124 81 100 62 135 78 160 77 27 -2 35 2 44
22 12 24 32 31 143 41 17 2 45 8 61 15 58 21 190 85 196 94 4 5 12 5 18 2 6
-4 10 -3 9 2 -4 11 136 123 188 151 22 12 50 30 64 41 36 29 311 151 323 143
6 -3 7 -1 3 5 -4 7 -1 12 6 12 19 0 228 117 256 143 26 24 56 76 49 84 -3 2
-61 -29 -129 -70 -163 -98 -215 -124 -393 -192 -82 -31 -167 -68 -188 -81 -21
-14 -42 -22 -48 -19 -5 4 -8 2 -7 -3 4 -11 -88 -85 -139 -112 -21 -10 -77 -28
-124 -40 -95 -22 -171 -47 -239 -78 -25 -11 -65 -23 -89 -26 -85 -13 -373
-157 -581 -291 l-75 -49 -86 3 c-110 3 -140 -9 -270 -112 l-96 -76 -344 -97
c-433 -121 -513 -143 -517 -139 -2 2 7 6 19 10 12 4 68 29 123 55 56 26 227
102 381 168 154 66 388 168 520 227 287 128 2544 1112 2555 1114 2 1 -18 -21
-45 -49z m934 -114 c-10 -9 -69 -36 -69 -32 0 7 52 35 64 36 5 0 7 -2 5 -4z
m-1136 -277 c26 -7 46 -18 44 -24 -8 -24 -74 -55 -184 -85 -149 -41 -357 -120
-423 -161 -27 -17 -54 -28 -60 -24 -6 4 -9 1 -8 -5 5 -21 -253 -174 -353 -209
-121 -42 -184 -76 -292 -157 -72 -55 -90 -64 -102 -54 -22 18 -20 22 35 53 28
16 50 32 50 38 0 12 -17 12 -25 -1 -25 -40 -215 -86 -215 -51 0 6 257 91 276
91 29 0 85 24 110 46 18 16 21 22 9 16 -24 -12 -256 -74 -260 -70 -6 6 1330
618 1340 615 6 -2 31 -10 58 -18z m163 -36 c16 -6 16 -7 1 -12 -9 -4 -38 -4
-64 -2 -36 3 -43 6 -28 12 25 10 68 11 91 2z m-1698 -668 c1 -1 -42 -13 -95
-28 -54 -14 -107 -28 -118 -31 -22 -7 2 5 89 46 42 19 68 25 90 21 17 -3 32
-7 34 -8z m512 -70 c0 -3 -12 -18 -27 -32 -22 -21 -24 -23 -6 -14 21 11 53 6
53 -8 0 -4 -16 -13 -35 -20 -19 -6 -76 -40 -127 -73 -77 -50 -124 -72 -273
-123 -344 -119 -435 -164 -785 -384 -156 -98 -322 -191 -540 -301 -317 -161
-451 -239 -570 -334 -64 -51 -180 -104 -200 -91 -6 3 -17 20 -26 37 -13 25
-14 32 -2 40 9 7 7 8 -8 3 -16 -4 -28 3 -48 30 l-27 35 53 24 c29 13 287 135
573 271 638 304 1064 506 1255 595 80 38 276 131 435 208 290 140 305 147 305
137z m-3216 -229 c24 -61 70 -172 100 -246 31 -74 49 -126 41 -115 -78 105
-249 324 -252 321 -2 -2 10 -34 27 -71 17 -37 29 -69 27 -71 -2 -2 -22 37 -45
87 -23 50 -35 85 -27 79 20 -16 19 -11 -5 45 -31 73 -24 66 31 -30 61 -107
109 -178 116 -172 12 12 -61 226 -113 330 l-16 32 36 -39 c22 -24 51 -79 80
-150z m1966 24 c-8 -5 -19 -10 -25 -10 -5 0 -3 5 5 10 8 5 20 10 25 10 6 0 3
-5 -5 -10z m-2096 -126 c3 -8 2 -12 -4 -9 -6 3 -10 10 -10 16 0 14 7 11 14 -7z
m821 -123 c-6 -5 -21 -11 -35 -15 -21 -5 -20 -3 5 9 35 17 42 18 30 6z m-183
-53 c-71 -32 -236 -78 -246 -68 -5 5 7 13 30 19 22 6 84 24 139 40 117 35 136
37 77 9z m993 -118 c-3 -5 -12 -10 -18 -10 -7 0 -6 4 3 10 19 12 23 12 15 0z
m-130 -60 c-44 -21 -84 -39 -90 -39 -5 1 26 18 70 39 44 21 85 39 90 39 6 -1
-26 -18 -70 -39z m190 -490 c-3 -5 -12 -10 -18 -10 -7 0 -6 4 3 10 19 12 23
12 15 0z"/>
<path d="M1155 6990 c9 -16 18 -30 21 -30 2 0 -2 14 -11 30 -9 17 -18 30 -21
30 -2 0 2 -13 11 -30z"/>
<path d="M7540 3070 c-8 -5 -10 -10 -5 -10 6 0 17 5 25 10 8 5 11 10 5 10 -5
0 -17 -5 -25 -10z"/>
<path d="M7470 3040 c-8 -5 -10 -10 -5 -10 6 0 17 5 25 10 8 5 11 10 5 10 -5
0 -17 -5 -25 -10z"/>
<path d="M7508 2999 c-21 -11 -38 -22 -38 -24 0 -3 18 4 40 15 22 11 40 23 40
25 0 7 0 7 -42 -16z"/>
<path d="M7310 2970 c-8 -5 -10 -10 -5 -10 6 0 17 5 25 10 8 5 11 10 5 10 -5
0 -17 -5 -25 -10z"/>
<path d="M7482 2923 c-24 -24 -24 -25 -2 -8 42 33 44 35 37 35 -4 0 -19 -12
-35 -27z"/>
<path d="M6844 2724 c-18 -14 -18 -15 4 -4 12 6 22 13 22 15 0 8 -5 6 -26 -11z"/>
<path d="M7029 2699 l-24 -20 28 17 c15 9 27 18 27 20 0 8 -8 4 -31 -17z"/>
<path d="M6919 2623 c-13 -16 -12 -17 4 -4 16 13 21 21 13 21 -2 0 -10 -8 -17
-17z"/>
<path d="M6558 2584 c-39 -21 -35 -28 5 -8 37 19 44 24 31 24 -5 -1 -21 -8
-36 -16z"/>
<path d="M6754 2514 c-18 -14 -18 -15 4 -4 12 6 22 13 22 15 0 8 -5 6 -26 -11z"/>
<path d="M5900 2340 c-8 -5 -10 -10 -5 -10 6 0 17 5 25 10 8 5 11 10 5 10 -5
0 -17 -5 -25 -10z"/>
<path d="M5718 2273 c7 -3 16 -2 19 1 4 3 -2 6 -13 5 -11 0 -14 -3 -6 -6z"/>
<path d="M6175 2270 c-13 -5 -14 -9 -5 -9 8 0 24 4 35 9 13 5 14 9 5 9 -8 0
-24 -4 -35 -9z"/>
<path d="M5648 2263 c6 -2 18 -2 25 0 6 3 1 5 -13 5 -14 0 -19 -2 -12 -5z"/>
<path d="M5608 2253 c7 -3 16 -2 19 1 4 3 -2 6 -13 5 -11 0 -14 -3 -6 -6z"/>
<path d="M6118 2253 c6 -2 18 -2 25 0 6 3 1 5 -13 5 -14 0 -19 -2 -12 -5z"/>
<path d="M5540 2230 c-8 -5 -10 -10 -5 -10 6 0 17 5 25 10 8 5 11 10 5 10 -5
0 -17 -5 -25 -10z"/>
<path d="M5460 2195 c-14 -8 -20 -14 -15 -14 6 0 21 6 35 14 14 8 21 14 15 14
-5 0 -21 -6 -35 -14z"/>
<path d="M6049 2193 c-13 -16 -12 -17 4 -4 16 13 21 21 13 21 -2 0 -10 -8 -17
-17z"/>
<path d="M5380 2160 c-8 -5 -10 -10 -5 -10 6 0 17 5 25 10 8 5 11 10 5 10 -5
0 -17 -5 -25 -10z"/>
<path d="M4548 1794 c-38 -20 -36 -28 2 -9 17 9 30 18 30 20 0 7 -1 6 -32 -11z"/>
<path d="M4410 1720 c-8 -5 -10 -10 -5 -10 6 0 17 5 25 10 8 5 11 10 5 10 -5
0 -17 -5 -25 -10z"/>
<path d="M7250 2660 c-8 -5 -10 -10 -5 -10 6 0 17 5 25 10 8 5 11 10 5 10 -5
0 -17 -5 -25 -10z"/>
<path d="M7024 2564 c-18 -14 -18 -14 6 -3 31 14 36 19 24 19 -6 0 -19 -7 -30
-16z"/>
<path d="M6025 1760 c-13 -6 -15 -9 -5 -9 8 0 22 4 30 9 18 12 2 12 -25 0z"/>
<path d="M5008 1284 c-38 -20 -36 -28 2 -9 17 9 30 18 30 20 0 7 -1 6 -32 -11z"/>
<path d="M4944 1244 c-18 -14 -18 -15 4 -4 12 6 22 13 22 15 0 8 -5 6 -26 -11z"/>
<path d="M4874 1204 c-18 -14 -18 -15 4 -4 12 6 22 13 22 15 0 8 -5 6 -26 -11z"/>
<path d="M4804 1164 c-18 -14 -18 -15 4 -4 12 6 22 13 22 15 0 8 -5 6 -26 -11z"/>
<path d="M4728 1124 c-38 -20 -36 -28 2 -9 17 9 30 18 30 20 0 7 -1 6 -32 -11z"/>
<path d="M4528 1019 c-21 -11 -38 -22 -38 -24 0 -3 18 4 40 15 22 11 40 23 40
25 0 7 0 7 -42 -16z"/>
<path d="M4454 974 c-18 -14 -18 -15 4 -4 12 6 22 13 22 15 0 8 -5 6 -26 -11z"/>
<path d="M4302 876 c-85 -58 -128 -91 -92 -71 35 20 190 126 190 130 0 7 2 9
-98 -59z"/>
<path d="M4090 745 c-14 -8 -20 -14 -14 -15 5 0 19 7 30 15 24 18 16 19 -16 0z"/>
<path d="M4030 720 c-8 -5 -10 -10 -5 -10 6 0 17 5 25 10 8 5 11 10 5 10 -5 0
-17 -5 -25 -10z"/>
<path d="M750 10290 c-8 -5 -10 -10 -5 -10 6 0 17 5 25 10 8 5 11 10 5 10 -5
0 -17 -5 -25 -10z"/>
<path d="M620 10230 c-8 -5 -10 -10 -5 -10 6 0 17 5 25 10 8 5 11 10 5 10 -5
0 -17 -5 -25 -10z"/>
<path d="M6730 10175 c0 -5 5 -17 10 -25 5 -8 10 -10 10 -5 0 6 -5 17 -10 25
-5 8 -10 11 -10 5z"/>
<path d="M340 10100 c-8 -5 -10 -10 -5 -10 6 0 17 5 25 10 8 5 11 10 5 10 -5
0 -17 -5 -25 -10z"/>
<path d="M196 10032 c-2 -4 0 -14 6 -22 8 -12 9 -12 5 2 -3 9 -1 19 6 22 9 3
9 5 0 5 -6 1 -14 -3 -17 -7z"/>
<path d="M6870 9815 c0 -5 5 -17 10 -25 5 -8 10 -10 10 -5 0 6 -5 17 -10 25
-5 8 -10 11 -10 5z"/>
<path d="M330 9675 c0 -5 5 -17 10 -25 5 -8 10 -10 10 -5 0 6 -5 17 -10 25 -5
8 -10 11 -10 5z"/>
<path d="M470 9315 c0 -5 5 -17 10 -25 5 -8 10 -10 10 -5 0 6 -5 17 -10 25 -5
8 -10 11 -10 5z"/>
<path d="M610 8955 c0 -5 5 -17 10 -25 5 -8 10 -10 10 -5 0 6 -5 17 -10 25 -5
8 -10 11 -10 5z"/>
<path d="M750 8595 c0 -5 5 -17 10 -25 5 -8 10 -10 10 -5 0 6 -5 17 -10 25 -5
8 -10 11 -10 5z"/>
<path d="M6882 7901 c-91 -25 -216 -83 -319 -150 -86 -55 -107 -59 -174 -35
-121 43 -252 -32 -475 -274 -221 -238 -279 -282 -574 -433 -102 -53 -252 -138
-335 -191 -82 -52 -210 -130 -283 -173 -91 -53 -137 -86 -143 -102 -13 -34
-12 -40 11 -63 18 -18 33 -20 127 -20 139 0 225 14 288 48 29 15 94 71 155
133 58 58 133 127 168 153 34 26 87 78 117 116 87 109 168 166 330 231 51 20
112 49 135 64 63 40 118 56 187 56 72 0 116 -11 214 -52 66 -28 76 -30 117
-19 83 21 141 60 267 180 143 135 192 164 308 179 42 6 94 18 115 26 108 46
194 204 147 272 -43 61 -249 90 -383 54z"/>
<path d="M5142 7835 c-82 -13 -189 -34 -589 -121 -133 -28 -232 -63 -333 -115
-143 -74 -187 -119 -410 -422 -44 -61 -103 -105 -260 -196 -69 -40 -154 -94
-190 -120 -123 -90 -161 -112 -303 -178 -78 -37 -154 -75 -169 -85 -38 -26
-36 -59 4 -93 30 -25 38 -27 98 -22 69 5 106 16 265 78 78 30 126 58 214 124
77 57 141 96 200 120 117 49 175 95 220 174 33 59 42 67 113 104 64 32 83 48
107 87 16 26 42 56 58 67 31 23 202 97 248 109 l29 7 -28 -47 c-15 -26 -26
-50 -23 -52 2 -3 20 4 38 15 70 41 219 82 348 96 137 15 215 38 353 104 140
66 222 163 242 287 15 86 -46 107 -232 79z"/>
<path d="M758 7833 c7 -3 16 -2 19 1 4 3 -2 6 -13 5 -11 0 -14 -3 -6 -6z"/>
<path d="M760 7805 c0 -8 2 -15 4 -15 2 0 6 7 10 15 3 8 1 15 -4 15 -6 0 -10
-7 -10 -15z"/>
<path d="M781 7784 c0 -11 3 -14 6 -6 3 7 2 16 -1 19 -3 4 -6 -2 -5 -13z"/>
<path d="M831 7645 c0 -5 6 -21 14 -35 8 -14 14 -20 14 -15 0 6 -6 21 -14 35
-8 14 -14 21 -14 15z"/>
<path d="M860 7575 c0 -5 5 -17 10 -25 5 -8 10 -10 10 -5 0 6 -5 17 -10 25 -5
8 -10 11 -10 5z"/>
<path d="M1150 7565 c0 -5 5 -17 10 -25 5 -8 10 -10 10 -5 0 6 -5 17 -10 25
-5 8 -10 11 -10 5z"/>
<path d="M960 7215 c0 -5 5 -17 10 -25 5 -8 10 -10 10 -5 0 6 -5 17 -10 25 -5
8 -10 11 -10 5z"/>
<path d="M990 7145 c0 -5 5 -17 10 -25 5 -8 10 -10 10 -5 0 6 -5 17 -10 25 -5
8 -10 11 -10 5z"/>
<path d="M1034 7033 c2 -10 10 -37 17 -61 7 -23 14 -40 16 -38 5 5 -27 116
-33 116 -3 0 -3 -8 0 -17z"/>
<path d="M1600 6405 c0 -5 5 -17 10 -25 5 -8 10 -10 10 -5 0 6 -5 17 -10 25
-5 8 -10 11 -10 5z"/>
<path d="M7350 6365 c-81 -25 -546 -263 -642 -329 -52 -35 -176 -105 -277
-155 -125 -63 -249 -136 -395 -234 -118 -78 -251 -165 -297 -194 -159 -98
-504 -354 -616 -456 -61 -56 -109 -104 -107 -106 6 -7 152 67 221 112 38 24
121 83 186 131 238 176 355 241 722 404 235 104 300 123 554 166 221 38 265
51 490 150 58 25 170 84 250 132 80 48 175 104 211 125 75 44 200 144 200 160
0 22 -20 47 -47 57 -50 20 -261 52 -335 51 -40 0 -93 -7 -118 -14z"/>
<path d="M1475 6330 c9 -16 18 -30 21 -30 2 0 -2 14 -11 30 -9 17 -18 30 -21
30 -2 0 2 -13 11 -30z"/>
<path d="M1506 6277 c3 -10 9 -15 12 -12 3 3 0 11 -7 18 -10 9 -11 8 -5 -6z"/>
<path d="M1740 6045 c0 -5 5 -17 10 -25 5 -8 10 -10 10 -5 0 6 -5 17 -10 25
-5 8 -10 11 -10 5z"/>
<path d="M1580 5565 c0 -5 5 -17 10 -25 5 -8 10 -10 10 -5 0 6 -5 17 -10 25
-5 8 -10 11 -10 5z"/>
<path d="M1807 5459 c7 -7 15 -10 18 -7 3 3 -2 9 -12 12 -14 6 -15 5 -6 -5z"/>
<path d="M1645 5430 c9 -16 18 -30 21 -30 2 0 -2 14 -11 30 -9 17 -18 30 -21
30 -2 0 2 -13 11 -30z"/>
<path d="M1732 5265 c18 -35 34 -63 36 -61 4 5 -56 126 -63 126 -3 0 10 -29
27 -65z"/>
<path d="M8715 5052 c1 -15 11 -49 24 -77 12 -27 52 -119 88 -202 36 -84 69
-153 74 -153 9 0 -145 388 -160 403 -6 6 -11 19 -11 28 0 10 -4 20 -8 23 -4 2
-7 -8 -7 -22z"/>
<path d="M2140 5015 c0 -5 5 -17 10 -25 5 -8 10 -10 10 -5 0 6 -5 17 -10 25
-5 8 -10 11 -10 5z"/>
<path d="M8841 4924 c0 -11 3 -14 6 -6 3 7 2 16 -1 19 -3 4 -6 -2 -5 -13z"/>
<path d="M8850 4895 c0 -5 5 -17 10 -25 5 -8 10 -10 10 -5 0 6 -5 17 -10 25
-5 8 -10 11 -10 5z"/>
<path d="M1881 4794 c0 -11 3 -14 6 -6 3 7 2 16 -1 19 -3 4 -6 -2 -5 -13z"/>
<path d="M8900 4787 c0 -11 110 -227 115 -227 5 0 -102 219 -111 229 -2 2 -4
1 -4 -2z"/>
<path d="M1901 4724 c0 -11 3 -14 6 -6 3 7 2 16 -1 19 -3 4 -6 -2 -5 -13z"/>
<path d="M2170 4686 c0 -11 30 -66 36 -66 2 0 -3 15 -12 33 -19 36 -24 44 -24
33z"/>
<path d="M2280 4655 c0 -5 5 -17 10 -25 5 -8 10 -10 10 -5 0 6 -5 17 -10 25
-5 8 -10 11 -10 5z"/>
<path d="M1931 4624 c0 -11 3 -14 6 -6 3 7 2 16 -1 19 -3 4 -6 -2 -5 -13z"/>
<path d="M8930 4576 c5 -14 80 -169 167 -343 86 -175 174 -363 194 -418 l38
-100 -1 80 c0 44 -4 91 -9 105 -7 20 -8 16 -4 -15 l5 -40 -26 49 c-16 31 -31
83 -40 140 -13 88 -13 123 0 70 4 -14 9 -24 12 -21 11 10 -106 277 -121 277
-3 0 0 -10 6 -22 25 -49 -52 37 -84 92 -45 80 -88 136 -119 155 l-28 16 10
-25z"/>
<path d="M2240 4560 c6 -11 13 -20 16 -20 2 0 0 9 -6 20 -6 11 -13 20 -16 20
-2 0 0 -9 6 -20z"/>
<path d="M9035 4524 c10 -17 26 -41 37 -55 l20 -24 -17 31 c-10 17 -26 41 -37
55 l-20 24 17 -31z"/>
<path d="M1961 4524 c0 -11 3 -14 6 -6 3 7 2 16 -1 19 -3 4 -6 -2 -5 -13z"/>
<path d="M2270 4510 c6 -11 13 -20 16 -20 2 0 0 9 -6 20 -6 11 -13 20 -16 20
-2 0 0 -9 6 -20z"/>
<path d="M2310 4435 c0 -5 5 -17 10 -25 5 -8 10 -10 10 -5 0 6 -5 17 -10 25
-5 8 -10 11 -10 5z"/>
<path d="M2001 4394 c0 -11 3 -14 6 -6 3 7 2 16 -1 19 -3 4 -6 -2 -5 -13z"/>
<path d="M9120 4390 c6 -11 13 -20 16 -20 2 0 0 9 -6 20 -6 11 -13 20 -16 20
-2 0 0 -9 6 -20z"/>
<path d="M2331 4385 c1 -19 18 -51 18 -35 0 8 -4 22 -9 30 -5 8 -9 11 -9 5z"/>
<path d="M2020 4324 c0 -10 5 -26 10 -34 8 -11 9 -7 4 15 -8 37 -14 45 -14 19z"/>
<path d="M2041 4260 c0 -8 4 -22 9 -30 12 -18 12 -2 0 25 -6 13 -9 15 -9 5z"/>
<path d="M2391 4200 c0 -8 4 -24 9 -35 5 -13 9 -14 9 -5 0 8 -4 24 -9 35 -5
13 -9 14 -9 5z"/>
<path d="M2070 4175 c0 -5 5 -17 10 -25 5 -8 10 -10 10 -5 0 6 -5 17 -10 25
-5 8 -10 11 -10 5z"/>
<path d="M2101 4105 c0 -5 8 -26 19 -45 11 -19 19 -30 19 -25 0 6 -8 26 -19
45 -11 19 -19 31 -19 25z"/>
<path d="M2421 4094 c0 -11 3 -14 6 -6 3 7 2 16 -1 19 -3 4 -6 -2 -5 -13z"/>
<path d="M2431 4060 c0 -8 4 -24 9 -35 5 -13 9 -14 9 -5 0 8 -4 24 -9 35 -5
13 -9 14 -9 5z"/>
<path d="M9270 4068 c3 -22 39 -138 39 -125 1 21 -28 127 -35 127 -2 0 -4 -1
-4 -2z"/>
<path d="M2160 3975 c0 -5 5 -17 10 -25 5 -8 10 -10 10 -5 0 6 -5 17 -10 25
-5 8 -10 11 -10 5z"/>
<path d="M2462 3940 c0 -14 2 -19 5 -12 2 6 2 18 0 25 -3 6 -5 1 -5 -13z"/>
<path d="M2180 3925 c0 -5 5 -17 10 -25 5 -8 10 -10 10 -5 0 6 -5 17 -10 25
-5 8 -10 11 -10 5z"/>
<path d="M8520 3830 c-8 -5 -10 -10 -5 -10 6 0 17 5 25 10 8 5 11 10 5 10 -5
0 -17 -5 -25 -10z"/>
<path d="M2221 3820 c0 -8 4 -22 9 -30 12 -18 12 -2 0 25 -6 13 -9 15 -9 5z"/>
<path d="M9546 3671 c-17 -6 -17 -8 -4 -14 10 -3 19 0 22 9 3 8 4 14 3 13 -1
0 -11 -4 -21 -8z"/>
<path d="M9498 3653 c7 -3 16 -2 19 1 4 3 -2 6 -13 5 -11 0 -14 -3 -6 -6z"/>
<path d="M8110 3640 c-8 -5 -10 -10 -5 -10 6 0 17 5 25 10 8 5 11 10 5 10 -5
0 -17 -5 -25 -10z"/>
<path d="M9428 3633 c7 -3 16 -2 19 1 4 3 -2 6 -13 5 -11 0 -14 -3 -6 -6z"/>
<path d="M9516 3605 c-11 -8 -15 -15 -9 -15 6 0 16 7 23 15 16 19 11 19 -14 0z"/>
<path d="M9468 3583 c7 -3 16 -2 19 1 4 3 -2 6 -13 5 -11 0 -14 -3 -6 -6z"/>
<path d="M9428 3573 c7 -3 16 -2 19 1 4 3 -2 6 -13 5 -11 0 -14 -3 -6 -6z"/>
<path d="M7830 3510 c-8 -5 -10 -10 -5 -10 6 0 17 5 25 10 8 5 11 10 5 10 -5
0 -17 -5 -25 -10z"/>
<path d="M9350 3510 c-9 -6 -10 -10 -3 -10 6 0 15 5 18 10 8 12 4 12 -15 0z"/>
<path d="M9476 3471 c-3 -5 -14 -8 -24 -6 -9 1 -11 0 -4 -2 11 -4 11 -8 0 -21
-7 -10 0 -6 15 7 15 14 27 26 27 28 0 6 -9 3 -14 -6z"/>
<path d="M9209 3453 c-13 -16 -12 -17 4 -4 16 13 21 21 13 21 -2 0 -10 -8 -17
-17z"/>
<path d="M7700 3450 c-8 -5 -10 -10 -5 -10 6 0 17 5 25 10 8 5 11 10 5 10 -5
0 -17 -5 -25 -10z"/>
<path d="M9216 3354 c-37 -36 -60 -61 -50 -56 11 6 33 23 49 38 17 15 31 27
33 26 1 -1 8 -2 15 -2 9 0 9 2 -1 9 -11 6 -7 13 14 30 14 11 23 21 18 21 -5
-1 -40 -30 -78 -66z"/>
<path d="M9134 3394 c-18 -14 -18 -15 4 -4 12 6 22 13 22 15 0 8 -5 6 -26 -11z"/>
<path d="M9370 3400 c-8 -5 -10 -10 -5 -10 6 0 17 5 25 10 8 5 11 10 5 10 -5
0 -17 -5 -25 -10z"/>
<path d="M7550 3380 c-8 -5 -10 -10 -5 -10 6 0 17 5 25 10 8 5 11 10 5 10 -5
0 -17 -5 -25 -10z"/>
<path d="M9328 3383 c7 -3 16 -2 19 1 4 3 -2 6 -13 5 -11 0 -14 -3 -6 -6z"/>
<path d="M9288 3373 c7 -3 16 -2 19 1 4 3 -2 6 -13 5 -11 0 -14 -3 -6 -6z"/>
<path d="M7420 3320 c-8 -5 -10 -10 -5 -10 6 0 17 5 25 10 8 5 11 10 5 10 -5
0 -17 -5 -25 -10z"/>
<path d="M8970 3300 c-8 -5 -10 -10 -5 -10 6 0 17 5 25 10 8 5 11 10 5 10 -5
0 -17 -5 -25 -10z"/>
<path d="M9203 3273 c15 -2 37 -2 50 0 12 2 0 4 -28 4 -27 0 -38 -2 -22 -4z"/>
<path d="M7290 3260 c-8 -5 -10 -10 -5 -10 6 0 17 5 25 10 8 5 11 10 5 10 -5
0 -17 -5 -25 -10z"/>
<path d="M2420 3255 c0 -5 5 -17 10 -25 5 -8 10 -10 10 -5 0 6 -5 17 -10 25
-5 8 -10 11 -10 5z"/>
<path d="M9252 3212 c-11 -25 -11 -25 4 -10 9 9 15 21 13 27 -2 6 -10 -2 -17
-17z"/>
<path d="M7140 3190 c-8 -5 -10 -10 -5 -10 6 0 17 5 25 10 8 5 11 10 5 10 -5
0 -17 -5 -25 -10z"/>
<path d="M7010 3130 c-8 -5 -10 -10 -5 -10 6 0 17 5 25 10 8 5 11 10 5 10 -5
0 -17 -5 -25 -10z"/>
<path d="M6730 3000 c-8 -5 -10 -10 -5 -10 6 0 17 5 25 10 8 5 11 10 5 10 -5
0 -17 -5 -25 -10z"/>
<path d="M8438 3003 c7 -3 16 -2 19 1 4 3 -2 6 -13 5 -11 0 -14 -3 -6 -6z"/>
<path d="M8398 2993 c7 -3 16 -2 19 1 4 3 -2 6 -13 5 -11 0 -14 -3 -6 -6z"/>
<path d="M8338 2983 c7 -3 16 -2 19 1 4 3 -2 6 -13 5 -11 0 -14 -3 -6 -6z"/>
<path d="M2960 2905 c0 -5 5 -17 10 -25 5 -8 10 -10 10 -5 0 6 -5 17 -10 25
-5 8 -10 11 -10 5z"/>
<path d="M2561 2840 c0 -8 4 -22 9 -30 12 -18 12 -2 0 25 -6 13 -9 15 -9 5z"/>
<path d="M8510 2820 c-8 -5 -10 -10 -5 -10 6 0 17 5 25 10 8 5 11 10 5 10 -5
0 -17 -5 -25 -10z"/>
<path d="M6320 2810 c-8 -5 -10 -10 -5 -10 6 0 17 5 25 10 8 5 11 10 5 10 -5
0 -17 -5 -25 -10z"/>
<path d="M8450 2800 c-18 -12 -2 -12 25 0 13 6 15 9 5 9 -8 0 -22 -4 -30 -9z"/>
<path d="M2520 2745 c13 -14 26 -25 28 -25 3 0 -5 11 -18 25 -13 14 -26 25
-28 25 -3 0 5 -11 18 -25z"/>
<path d="M8338 2763 c7 -3 16 -2 19 1 4 3 -2 6 -13 5 -11 0 -14 -3 -6 -6z"/>
<path d="M2453 2673 c-12 -13 -19 -23 -14 -23 10 0 46 39 40 43 -2 2 -14 -7
-26 -20z"/>
<path d="M6040 2680 c-8 -5 -10 -10 -5 -10 6 0 17 5 25 10 8 5 11 10 5 10 -5
0 -17 -5 -25 -10z"/>
<path d="M2551 2640 c14 -31 19 -36 19 -24 0 6 -7 19 -16 30 -14 18 -14 18 -3
-6z"/>
<path d="M5910 2620 c-8 -5 -10 -10 -5 -10 6 0 17 5 25 10 8 5 11 10 5 10 -5
0 -17 -5 -25 -10z"/>
<path d="M7888 2623 c7 -3 16 -2 19 1 4 3 -2 6 -13 5 -11 0 -14 -3 -6 -6z"/>
<path d="M7818 2603 c7 -3 16 -2 19 1 4 3 -2 6 -13 5 -11 0 -14 -3 -6 -6z"/>
<path d="M7748 2583 c7 -3 16 -2 19 1 4 3 -2 6 -13 5 -11 0 -14 -3 -6 -6z"/>
<path d="M2591 2555 c0 -5 8 -26 19 -45 11 -19 19 -30 19 -25 0 6 -8 26 -19
45 -11 19 -19 31 -19 25z"/>
<path d="M5760 2550 c-8 -5 -10 -10 -5 -10 6 0 17 5 25 10 8 5 11 10 5 10 -5
0 -17 -5 -25 -10z"/>
<path d="M5630 2490 c-8 -5 -10 -10 -5 -10 6 0 17 5 25 10 8 5 11 10 5 10 -5
0 -17 -5 -25 -10z"/>
<path d="M7150 2460 c-9 -6 -10 -10 -3 -10 6 0 15 5 18 10 8 12 4 12 -15 0z"/>
<path d="M2820 2435 c51 -131 69 -187 64 -199 -3 -8 2 -29 11 -48 17 -32 15
-31 -32 15 -43 42 -73 59 -73 41 0 -16 54 -111 79 -139 16 -18 44 -58 62 -89
38 -61 55 -74 35 -23 -24 55 -46 138 -36 132 13 -8 13 1 -1 28 -15 29 -2 14
55 -60 26 -35 50 -63 52 -63 7 0 -204 410 -218 425 -5 6 -4 -3 2 -20z"/>
<path d="M2640 2445 c0 -5 5 -17 10 -25 5 -8 10 -10 10 -5 0 6 -5 17 -10 25
-5 8 -10 11 -10 5z"/>
<path d="M2508 2415 c6 -11 21 -29 34 -40 22 -19 22 -19 -2 10 -40 48 -43 51
-32 30z"/>
<path d="M7088 2399 c-32 -16 -58 -32 -58 -34 0 -3 27 8 60 25 33 17 60 32 60
35 0 7 2 8 -62 -26z"/>
<path d="M7354 2398 l-19 -23 23 19 c21 18 27 26 19 26 -2 0 -12 -10 -23 -22z"/>
<path d="M5350 2360 c-8 -5 -10 -10 -5 -10 6 0 17 5 25 10 8 5 11 10 5 10 -5
0 -17 -5 -25 -10z"/>
<path d="M7228 2349 c-21 -11 -38 -22 -38 -24 0 -3 18 4 40 15 22 11 40 23 40
25 0 7 0 7 -42 -16z"/>
<path d="M7299 2353 c-13 -16 -12 -17 4 -4 16 13 21 21 13 21 -2 0 -10 -8 -17
-17z"/>
<path d="M6934 2344 c-18 -14 -18 -15 4 -4 12 6 22 13 22 15 0 8 -5 6 -26 -11z"/>
<path d="M2570 2336 c0 -2 8 -10 18 -17 15 -13 16 -12 3 4 -13 16 -21 21 -21
13z"/>
<path d="M7245 2314 l-30 -26 33 22 c17 12 32 23 32 26 0 7 -4 5 -35 -22z"/>
<path d="M2686 2303 c-6 -14 -5 -15 5 -6 7 7 10 15 7 18 -3 3 -9 -2 -12 -12z"/>
<path d="M7154 2304 c-18 -14 -18 -15 4 -4 12 6 22 13 22 15 0 8 -5 6 -26 -11z"/>
<path d="M5220 2300 c-8 -5 -10 -10 -5 -10 6 0 17 5 25 10 8 5 11 10 5 10 -5
0 -17 -5 -25 -10z"/>
<path d="M7173 2269 c-35 -22 -46 -37 -15 -20 22 13 58 40 52 41 -3 0 -20 -10
-37 -21z"/>
<path d="M2690 2276 c0 -2 8 -10 18 -17 15 -13 16 -12 3 4 -13 16 -21 21 -21
13z"/>
<path d="M7084 2214 c-18 -14 -18 -15 4 -4 12 6 22 13 22 15 0 8 -5 6 -26 -11z"/>
<path d="M4940 2170 c-8 -5 -10 -10 -5 -10 6 0 17 5 25 10 8 5 11 10 5 10 -5
0 -17 -5 -25 -10z"/>
<path d="M2746 2110 c46 -68 61 -84 40 -45 -8 17 -30 46 -47 65 -28 31 -27 29
7 -20z"/>
<path d="M4660 2040 c-8 -5 -10 -10 -5 -10 6 0 17 5 25 10 8 5 11 10 5 10 -5
0 -17 -5 -25 -10z"/>
<path d="M2752 2009 c6 -16 12 -28 14 -26 5 5 -13 57 -20 57 -3 0 0 -14 6 -31z"/>
<path d="M2770 2016 c0 -2 8 -10 18 -17 15 -13 16 -12 3 4 -13 16 -21 21 -21
13z"/>
<path d="M4530 1980 c-8 -5 -10 -10 -5 -10 6 0 17 5 25 10 8 5 11 10 5 10 -5
0 -17 -5 -25 -10z"/>
<path d="M2770 1965 c0 -5 5 -17 10 -25 5 -8 10 -10 10 -5 0 6 -5 17 -10 25
-5 8 -10 11 -10 5z"/>
<path d="M4380 1910 c-8 -5 -10 -10 -5 -10 6 0 17 5 25 10 8 5 11 10 5 10 -5
0 -17 -5 -25 -10z"/>
<path d="M3360 1875 c0 -5 5 -17 10 -25 5 -8 10 -10 10 -5 0 6 -5 17 -10 25
-5 8 -10 11 -10 5z"/>
<path d="M5538 1863 c7 -3 16 -2 19 1 4 3 -2 6 -13 5 -11 0 -14 -3 -6 -6z"/>
<path d="M4250 1850 c-8 -5 -10 -10 -5 -10 6 0 17 5 25 10 8 5 11 10 5 10 -5
0 -17 -5 -25 -10z"/>
<path d="M2940 1791 c5 -11 15 -23 21 -27 6 -3 3 5 -6 20 -20 30 -30 35 -15 7z"/>
<path d="M3970 1720 c-8 -5 -10 -10 -5 -10 6 0 17 5 25 10 8 5 11 10 5 10 -5
0 -17 -5 -25 -10z"/>
<path d="M3000 1700 c6 -11 13 -20 16 -20 2 0 0 9 -6 20 -6 11 -13 20 -16 20
-2 0 0 -9 6 -20z"/>
<path d="M6255 1684 l-30 -26 33 22 c17 12 32 23 32 26 0 7 -4 5 -35 -22z"/>
<path d="M3840 1660 c-8 -5 -10 -10 -5 -10 6 0 17 5 25 10 8 5 11 10 5 10 -5
0 -17 -5 -25 -10z"/>
<path d="M5628 1643 c7 -3 16 -2 19 1 4 3 -2 6 -13 5 -11 0 -14 -3 -6 -6z"/>
<path d="M6160 1619 c-22 -18 -22 -19 -3 -10 12 6 25 16 28 21 9 15 3 12 -25
-11z"/>
<path d="M5468 1603 c7 -3 16 -2 19 1 4 3 -2 6 -13 5 -11 0 -14 -3 -6 -6z"/>
<path d="M6074 1564 c-18 -14 -18 -15 4 -4 12 6 22 13 22 15 0 8 -5 6 -26 -11z"/>
<path d="M6024 1534 c-18 -14 -18 -15 4 -4 12 6 22 13 22 15 0 8 -5 6 -26 -11z"/>
<path d="M3560 1530 c-8 -5 -10 -10 -5 -10 6 0 17 5 25 10 8 5 11 10 5 10 -5
0 -17 -5 -25 -10z"/>
<path d="M3500 1510 c0 -5 5 -10 11 -10 5 0 7 5 4 10 -3 6 -8 10 -11 10 -2 0
-4 -4 -4 -10z"/>
<path d="M5954 1494 c-18 -14 -18 -15 4 -4 12 6 22 13 22 15 0 8 -5 6 -26 -11z"/>
<path d="M5088 1483 c7 -3 16 -2 19 1 4 3 -2 6 -13 5 -11 0 -14 -3 -6 -6z"/>
<path d="M5884 1454 c-18 -14 -18 -15 4 -4 12 6 22 13 22 15 0 8 -5 6 -26 -11z"/>
<path d="M3910 1410 c-19 -11 -30 -19 -25 -19 6 0 26 8 45 19 19 11 31 19 25
19 -5 0 -26 -8 -45 -19z"/>
<path d="M5814 1414 c-18 -14 -18 -15 4 -4 12 6 22 13 22 15 0 8 -5 6 -26 -11z"/>
<path d="M5764 1384 c-18 -14 -18 -15 4 -4 12 6 22 13 22 15 0 8 -5 6 -26 -11z"/>
<path d="M3140 1375 c0 -5 5 -17 10 -25 5 -8 10 -10 10 -5 0 6 -5 17 -10 25
-5 8 -10 11 -10 5z"/>
<path d="M3645 1361 c-34 -5 -40 -10 -43 -33 -4 -32 16 -37 57 -14 14 8 30 13
35 12 6 -2 7 -1 3 2 -5 2 -1 13 9 23 19 22 17 22 -61 10z"/>
<path d="M5670 1335 c-36 -19 -61 -34 -57 -35 10 0 127 59 127 65 0 7 2 8 -70
-30z"/>
<path d="M3758 1343 c7 -3 16 -2 19 1 4 3 -2 6 -13 5 -11 0 -14 -3 -6 -6z"/>
<path d="M3528 1333 c7 -3 16 -2 19 1 4 3 -2 6 -13 5 -11 0 -14 -3 -6 -6z"/>
<path d="M4400 1320 c-8 -5 -10 -10 -5 -10 6 0 17 5 25 10 8 5 11 10 5 10 -5
0 -17 -5 -25 -10z"/>
<path d="M4350 1300 c-8 -5 -10 -10 -5 -10 6 0 17 5 25 10 8 5 11 10 5 10 -5
0 -17 -5 -25 -10z"/>
<path d="M3170 1295 c0 -5 5 -17 10 -25 5 -8 10 -10 10 -5 0 6 -5 17 -10 25
-5 8 -10 11 -10 5z"/>
<path d="M3538 1293 c6 -2 18 -2 25 0 6 3 1 5 -13 5 -14 0 -19 -2 -12 -5z"/>
<path d="M3468 1283 c7 -3 16 -2 19 1 4 3 -2 6 -13 5 -11 0 -14 -3 -6 -6z"/>
<path d="M4280 1270 c-19 -11 -30 -19 -25 -19 6 0 26 8 45 19 19 11 31 19 25
19 -5 0 -26 -8 -45 -19z"/>
<path d="M5510 1255 c-14 -8 -20 -14 -14 -15 5 0 19 7 30 15 24 18 16 19 -16
0z"/>
<path d="M3190 1245 c0 -5 5 -17 10 -25 5 -8 10 -10 10 -5 0 6 -5 17 -10 25
-5 8 -10 11 -10 5z"/>
<path d="M4175 1220 c-3 -6 1 -7 9 -4 18 7 21 14 7 14 -6 0 -13 -4 -16 -10z"/>
<path d="M3210 1195 c0 -5 5 -17 10 -25 5 -8 10 -10 10 -5 0 6 -5 17 -10 25
-5 8 -10 11 -10 5z"/>
<path d="M4094 1174 c-18 -14 -18 -15 4 -4 12 6 22 13 22 15 0 8 -5 6 -26 -11z"/>
<path d="M3490 1150 c12 -16 24 -30 26 -30 3 0 -4 14 -16 30 -12 17 -24 30
-26 30 -3 0 4 -13 16 -30z"/>
<path d="M3111 1136 c12 -20 23 -36 25 -36 7 0 -25 58 -36 65 -5 3 -1 -10 11
-29z"/>
<path d="M4433 1149 c-35 -22 -46 -37 -15 -20 22 13 58 40 52 41 -3 0 -20 -10
-37 -21z"/>
<path d="M5349 1143 l-24 -28 28 24 c15 14 27 26 27 28 0 8 -8 1 -31 -24z"/>
<path d="M3230 1145 c0 -5 5 -17 10 -25 5 -8 10 -10 10 -5 0 6 -5 17 -10 25
-5 8 -10 11 -10 5z"/>
<path d="M3975 1104 c-51 -34 -69 -52 -29 -29 35 20 82 54 74 55 -3 0 -23 -12
-45 -26z"/>
<path d="M4364 1104 c-18 -14 -18 -15 4 -4 12 6 22 13 22 15 0 8 -5 6 -26 -11z"/>
<path d="M5285 1094 c-18 -16 -22 -22 -9 -15 18 9 53 42 43 41 -2 -1 -17 -12
-34 -26z"/>
<path d="M3540 1080 c12 -16 24 -30 26 -30 3 0 -4 14 -16 30 -12 17 -24 30
-26 30 -3 0 4 -13 16 -30z"/>
<path d="M4314 1074 c-18 -14 -18 -15 4 -4 12 6 22 13 22 15 0 8 -5 6 -26 -11z"/>
<path d="M3110 1075 c0 -5 5 -17 10 -25 5 -8 10 -10 10 -5 0 6 -5 17 -10 25
-5 8 -10 11 -10 5z"/>
<path d="M4220 1025 c-25 -13 -41 -24 -37 -25 11 0 87 39 87 45 0 7 0 7 -50
-20z"/>
<path d="M3585 1016 c10 -14 19 -26 22 -26 7 0 -17 39 -28 46 -6 3 -3 -5 6
-20z"/>
<path d="M3570 975 c13 -14 26 -25 28 -25 3 0 -5 11 -18 25 -13 14 -26 25 -28
25 -3 0 5 -11 18 -25z"/>
<path d="M4100 970 c-19 -11 -30 -19 -25 -19 6 0 26 8 45 19 19 11 31 19 25
19 -5 0 -26 -8 -45 -19z"/>
<path d="M3340 975 c0 -5 5 -17 10 -25 5 -8 10 -10 10 -5 0 6 -5 17 -10 25 -5
8 -10 11 -10 5z"/>
<path d="M3930 950 c0 -5 5 -10 10 -10 6 0 10 5 10 10 0 6 -4 10 -10 10 -5 0
-10 -4 -10 -10z"/>
<path d="M4020 935 c-14 -8 -20 -14 -15 -14 6 0 21 6 35 14 14 8 21 14 15 14
-5 0 -21 -6 -35 -14z"/>
<path d="M3484 869 c-18 -20 -18 -21 1 -35 29 -22 48 -18 41 9 -3 12 -6 28 -6
35 0 18 -14 15 -36 -9z"/>
<path d="M3890 880 c-8 -5 -10 -10 -5 -10 6 0 17 5 25 10 8 5 11 10 5 10 -5 0
-17 -5 -25 -10z"/>
<path d="M3820 850 c-8 -5 -10 -10 -5 -10 6 0 17 5 25 10 8 5 11 10 5 10 -5 0
-17 -5 -25 -10z"/>
<path d="M3300 820 c6 -11 13 -20 16 -20 2 0 0 9 -6 20 -6 11 -13 20 -16 20
-2 0 0 -9 6 -20z"/>
<path d="M3548 823 c7 -3 16 -2 19 1 4 3 -2 6 -13 5 -11 0 -14 -3 -6 -6z"/>
<path d="M3755 820 c-3 -6 1 -7 9 -4 18 7 21 14 7 14 -6 0 -13 -4 -16 -10z"/>
<path d="M3521 794 c0 -11 3 -14 6 -6 3 7 2 16 -1 19 -3 4 -6 -2 -5 -13z"/>
<path d="M3370 795 c0 -5 5 -17 10 -25 5 -8 10 -10 10 -5 0 6 -5 17 -10 25 -5
8 -10 11 -10 5z"/>
<path d="M3329 775 c5 -11 17 -29 26 -40 l16 -20 -10 20 c-5 11 -17 29 -26 40
l-16 20 10 -20z"/>
<path d="M3660 780 c-8 -5 -10 -10 -5 -10 6 0 17 5 25 10 8 5 11 10 5 10 -5 0
-17 -5 -25 -10z"/>
<path d="M3250 768 c0 -11 50 -118 55 -118 2 0 -7 26 -20 57 -24 54 -35 73
-35 61z"/>
<path d="M3580 745 c-14 -8 -20 -14 -14 -15 5 0 19 7 30 15 24 18 16 19 -16 0z"/>
<path d="M3390 745 c0 -5 5 -17 10 -25 5 -8 10 -10 10 -5 0 6 -5 17 -10 25 -5
8 -10 11 -10 5z"/>
<path d="M3518 725 c-22 -30 -23 -39 -1 -31 9 4 19 2 23 -4 4 -6 7 5 8 25 2
41 -6 44 -30 10z"/>
<path d="M3440 695 c0 -5 5 -17 10 -25 5 -8 10 -10 10 -5 0 6 -5 17 -10 25 -5
8 -10 11 -10 5z"/>
<path d="M3240 667 c0 -2 13 -13 30 -25 17 -13 27 -17 24 -8 -4 11 -54 41 -54
33z"/>
<path d="M3417 657 c-3 -8 1 -21 9 -27 15 -13 17 -6 5 24 -6 17 -8 17 -14 3z"/>
<path d="M3765 647 c-16 -12 -32 -25 -33 -29 -2 -5 -9 -5 -15 -1 -7 3 -9 2 -4
-2 4 -5 -7 -25 -25 -44 -18 -20 -4 -9 32 24 36 32 69 62 75 67 19 16 -1 7 -30
-15z"/>
<path d="M3460 645 c0 -5 5 -17 10 -25 5 -8 10 -10 10 -5 0 6 -5 17 -10 25 -5
8 -10 11 -10 5z"/>
<path d="M3813 598 c-11 -13 -24 -30 -28 -38 -8 -16 -6 -14 34 33 14 15 22 27
19 27 -2 0 -14 -10 -25 -22z"/>
<path d="M3535 543 c-17 -9 -31 -17 -33 -18 -5 -5 21 -55 29 -55 12 0 50 78
41 84 -4 2 -21 -3 -37 -11z"/>
<path d="M3619 513 c-13 -16 -12 -17 4 -4 9 7 17 15 17 17 0 8 -8 3 -21 -13z"/>
<path d="M3460 500 c-8 -5 -10 -10 -5 -10 6 0 17 5 25 10 8 5 11 10 5 10 -5 0
-17 -5 -25 -10z"/>
<path d="M3566 465 c-14 -13 -26 -26 -26 -29 0 -8 69 38 70 47 0 14 -17 7 -44
-18z"/>
<path d="M3628 483 c7 -3 16 -2 19 1 4 3 -2 6 -13 5 -11 0 -14 -3 -6 -6z"/>
<path d="M3688 453 c7 -3 16 -2 19 1 4 3 -2 6 -13 5 -11 0 -14 -3 -6 -6z"/>
<path d="M3275 430 c-3 -6 1 -7 9 -4 18 7 21 14 7 14 -6 0 -13 -4 -16 -10z"/>
<path d="M3600 430 c-18 -12 -2 -12 25 0 13 6 15 9 5 9 -8 0 -22 -4 -30 -9z"/>
<path d="M3550 410 c-8 -5 -10 -10 -5 -10 6 0 17 5 25 10 8 5 11 10 5 10 -5 0
-17 -5 -25 -10z"/>
<path d="M4005 340 c-3 -6 1 -7 9 -4 18 7 21 14 7 14 -6 0 -13 -4 -16 -10z"/>
<path d="M3948 314 c-39 -21 -35 -28 5 -8 37 19 44 24 31 24 -5 -1 -21 -8 -36
-16z"/>
<path d="M3844 254 c-18 -14 -18 -15 4 -4 12 6 22 13 22 15 0 8 -5 6 -26 -11z"/>
<path d="M3764 204 c-18 -14 -18 -15 4 -4 12 6 22 13 22 15 0 8 -5 6 -26 -11z"/>
<path d="M3618 129 c-65 -32 -118 -61 -118 -64 0 -3 54 22 120 55 66 33 120
62 120 65 0 7 7 10 -122 -56z"/>
<path d="M3450 45 c-14 -8 -20 -14 -15 -14 6 0 21 6 35 14 14 8 21 14 15 14
-5 0 -21 -6 -35 -14z"/>
</g>
</svg>
